<mxfile host="app.diagrams.net" modified="2023-10-25T10:10:08.663Z" agent="Mozilla/5.0 (X11; Linux x86_64) AppleWebKit/537.36 (KHTML, like Gecko) Chrome/114.0.0.0 Safari/537.36" etag="FNAYoDafS0AAQuOlX1bF" version="22.0.7" type="github" pages="3">
  <diagram name="Page-1" id="rm_7QO5DBMCNLok0F9Ff">
    <mxGraphModel dx="1040" dy="627" grid="1" gridSize="10" guides="1" tooltips="1" connect="1" arrows="1" fold="1" page="1" pageScale="1" pageWidth="827" pageHeight="1169" math="0" shadow="0">
      <root>
        <mxCell id="0" />
        <mxCell id="1" parent="0" />
        <mxCell id="T3WA5_LwOZM7rSGJBzHW-11" value="" style="rounded=0;whiteSpace=wrap;html=1;" vertex="1" parent="1">
          <mxGeometry x="230" y="100" width="350" height="230" as="geometry" />
        </mxCell>
        <mxCell id="T3WA5_LwOZM7rSGJBzHW-1" value="" style="shape=table;startSize=0;container=1;collapsible=0;childLayout=tableLayout;" vertex="1" parent="1">
          <mxGeometry x="265" y="155" width="280" height="120" as="geometry" />
        </mxCell>
        <mxCell id="T3WA5_LwOZM7rSGJBzHW-2" value="" style="shape=tableRow;horizontal=0;startSize=0;swimlaneHead=0;swimlaneBody=0;strokeColor=inherit;top=0;left=0;bottom=0;right=0;collapsible=0;dropTarget=0;fillColor=none;points=[[0,0.5],[1,0.5]];portConstraint=eastwest;" vertex="1" parent="T3WA5_LwOZM7rSGJBzHW-1">
          <mxGeometry width="280" height="40" as="geometry" />
        </mxCell>
        <mxCell id="T3WA5_LwOZM7rSGJBzHW-3" value="&lt;font style=&quot;font-size: 14px;&quot;&gt;Inventory Service&lt;/font&gt;" style="shape=partialRectangle;html=1;whiteSpace=wrap;connectable=0;strokeColor=inherit;overflow=hidden;fillColor=none;top=0;left=0;bottom=0;right=0;pointerEvents=1;" vertex="1" parent="T3WA5_LwOZM7rSGJBzHW-2">
          <mxGeometry width="140" height="40" as="geometry">
            <mxRectangle width="140" height="40" as="alternateBounds" />
          </mxGeometry>
        </mxCell>
        <mxCell id="T3WA5_LwOZM7rSGJBzHW-4" value="&lt;font style=&quot;font-size: 14px;&quot;&gt;10.12.123.1&lt;/font&gt;" style="shape=partialRectangle;html=1;whiteSpace=wrap;connectable=0;strokeColor=inherit;overflow=hidden;fillColor=none;top=0;left=0;bottom=0;right=0;pointerEvents=1;" vertex="1" parent="T3WA5_LwOZM7rSGJBzHW-2">
          <mxGeometry x="140" width="140" height="40" as="geometry">
            <mxRectangle width="140" height="40" as="alternateBounds" />
          </mxGeometry>
        </mxCell>
        <mxCell id="T3WA5_LwOZM7rSGJBzHW-5" value="" style="shape=tableRow;horizontal=0;startSize=0;swimlaneHead=0;swimlaneBody=0;strokeColor=inherit;top=0;left=0;bottom=0;right=0;collapsible=0;dropTarget=0;fillColor=none;points=[[0,0.5],[1,0.5]];portConstraint=eastwest;" vertex="1" parent="T3WA5_LwOZM7rSGJBzHW-1">
          <mxGeometry y="40" width="280" height="40" as="geometry" />
        </mxCell>
        <mxCell id="T3WA5_LwOZM7rSGJBzHW-6" value="&lt;font style=&quot;font-size: 14px;&quot;&gt;Inventory Service&lt;/font&gt;" style="shape=partialRectangle;html=1;whiteSpace=wrap;connectable=0;strokeColor=inherit;overflow=hidden;fillColor=none;top=0;left=0;bottom=0;right=0;pointerEvents=1;" vertex="1" parent="T3WA5_LwOZM7rSGJBzHW-5">
          <mxGeometry width="140" height="40" as="geometry">
            <mxRectangle width="140" height="40" as="alternateBounds" />
          </mxGeometry>
        </mxCell>
        <mxCell id="T3WA5_LwOZM7rSGJBzHW-7" value="&lt;font style=&quot;font-size: 14px;&quot;&gt;10.12.123.2&lt;/font&gt;" style="shape=partialRectangle;html=1;whiteSpace=wrap;connectable=0;strokeColor=inherit;overflow=hidden;fillColor=none;top=0;left=0;bottom=0;right=0;pointerEvents=1;" vertex="1" parent="T3WA5_LwOZM7rSGJBzHW-5">
          <mxGeometry x="140" width="140" height="40" as="geometry">
            <mxRectangle width="140" height="40" as="alternateBounds" />
          </mxGeometry>
        </mxCell>
        <mxCell id="T3WA5_LwOZM7rSGJBzHW-8" value="" style="shape=tableRow;horizontal=0;startSize=0;swimlaneHead=0;swimlaneBody=0;strokeColor=inherit;top=0;left=0;bottom=0;right=0;collapsible=0;dropTarget=0;fillColor=none;points=[[0,0.5],[1,0.5]];portConstraint=eastwest;" vertex="1" parent="T3WA5_LwOZM7rSGJBzHW-1">
          <mxGeometry y="80" width="280" height="40" as="geometry" />
        </mxCell>
        <mxCell id="T3WA5_LwOZM7rSGJBzHW-9" value="&lt;font style=&quot;font-size: 14px;&quot;&gt;Inventory Service&lt;/font&gt;" style="shape=partialRectangle;html=1;whiteSpace=wrap;connectable=0;strokeColor=inherit;overflow=hidden;fillColor=none;top=0;left=0;bottom=0;right=0;pointerEvents=1;" vertex="1" parent="T3WA5_LwOZM7rSGJBzHW-8">
          <mxGeometry width="140" height="40" as="geometry">
            <mxRectangle width="140" height="40" as="alternateBounds" />
          </mxGeometry>
        </mxCell>
        <mxCell id="T3WA5_LwOZM7rSGJBzHW-10" value="&lt;font style=&quot;font-size: 14px;&quot;&gt;10.12.123.3&lt;/font&gt;" style="shape=partialRectangle;html=1;whiteSpace=wrap;connectable=0;strokeColor=inherit;overflow=hidden;fillColor=none;top=0;left=0;bottom=0;right=0;pointerEvents=1;" vertex="1" parent="T3WA5_LwOZM7rSGJBzHW-8">
          <mxGeometry x="140" width="140" height="40" as="geometry">
            <mxRectangle width="140" height="40" as="alternateBounds" />
          </mxGeometry>
        </mxCell>
        <mxCell id="T3WA5_LwOZM7rSGJBzHW-12" value="&lt;font style=&quot;font-size: 14px;&quot;&gt;Discovery Server&lt;/font&gt;" style="text;html=1;align=center;verticalAlign=middle;resizable=0;points=[];autosize=1;strokeColor=none;fillColor=none;" vertex="1" parent="1">
          <mxGeometry x="340" y="60" width="130" height="30" as="geometry" />
        </mxCell>
        <mxCell id="T3WA5_LwOZM7rSGJBzHW-13" value="&lt;font style=&quot;font-size: 14px;&quot;&gt;Order Service&lt;/font&gt;" style="rounded=0;whiteSpace=wrap;html=1;" vertex="1" parent="1">
          <mxGeometry x="20" y="30" width="120" height="60" as="geometry" />
        </mxCell>
        <mxCell id="T3WA5_LwOZM7rSGJBzHW-14" value="&lt;font style=&quot;font-size: 14px;&quot;&gt;Product Service&lt;/font&gt;" style="rounded=0;whiteSpace=wrap;html=1;" vertex="1" parent="1">
          <mxGeometry x="20" y="350" width="120" height="60" as="geometry" />
        </mxCell>
        <mxCell id="T3WA5_LwOZM7rSGJBzHW-15" value="" style="endArrow=classic;html=1;rounded=0;exitX=0.5;exitY=1;exitDx=0;exitDy=0;entryX=0;entryY=0.391;entryDx=0;entryDy=0;entryPerimeter=0;" edge="1" parent="1" source="T3WA5_LwOZM7rSGJBzHW-13" target="T3WA5_LwOZM7rSGJBzHW-11">
          <mxGeometry width="50" height="50" relative="1" as="geometry">
            <mxPoint x="90" y="190" as="sourcePoint" />
            <mxPoint x="140" y="140" as="targetPoint" />
          </mxGeometry>
        </mxCell>
        <mxCell id="T3WA5_LwOZM7rSGJBzHW-16" value="" style="endArrow=classic;html=1;rounded=0;entryX=0;entryY=0.609;entryDx=0;entryDy=0;entryPerimeter=0;" edge="1" parent="1" target="T3WA5_LwOZM7rSGJBzHW-11">
          <mxGeometry width="50" height="50" relative="1" as="geometry">
            <mxPoint x="80" y="350" as="sourcePoint" />
            <mxPoint x="130" y="300" as="targetPoint" />
          </mxGeometry>
        </mxCell>
        <mxCell id="T3WA5_LwOZM7rSGJBzHW-17" value="&lt;font style=&quot;font-size: 14px;&quot;&gt;Hey, I&lt;br&gt;am here&lt;/font&gt;" style="text;html=1;align=center;verticalAlign=middle;resizable=0;points=[];autosize=1;strokeColor=none;fillColor=none;" vertex="1" parent="1">
          <mxGeometry x="80" y="128" width="70" height="50" as="geometry" />
        </mxCell>
        <mxCell id="T3WA5_LwOZM7rSGJBzHW-18" value="&lt;font style=&quot;font-size: 14px;&quot;&gt;Hey, I&lt;br&gt;am here&lt;/font&gt;" style="text;html=1;align=center;verticalAlign=middle;resizable=0;points=[];autosize=1;strokeColor=none;fillColor=none;" vertex="1" parent="1">
          <mxGeometry x="90" y="250" width="70" height="50" as="geometry" />
        </mxCell>
        <mxCell id="T3WA5_LwOZM7rSGJBzHW-19" value="&lt;font style=&quot;font-size: 14px;&quot;&gt;Inventory Service&lt;/font&gt;" style="rounded=0;whiteSpace=wrap;html=1;" vertex="1" parent="1">
          <mxGeometry x="680" y="30" width="120" height="60" as="geometry" />
        </mxCell>
        <mxCell id="T3WA5_LwOZM7rSGJBzHW-20" value="&lt;font style=&quot;font-size: 14px;&quot;&gt;Inventory Service&lt;/font&gt;" style="rounded=0;whiteSpace=wrap;html=1;" vertex="1" parent="1">
          <mxGeometry x="680" y="200" width="120" height="60" as="geometry" />
        </mxCell>
        <mxCell id="T3WA5_LwOZM7rSGJBzHW-21" value="&lt;font style=&quot;font-size: 14px;&quot;&gt;Inventory Service&lt;/font&gt;" style="rounded=0;whiteSpace=wrap;html=1;" vertex="1" parent="1">
          <mxGeometry x="680" y="370" width="120" height="60" as="geometry" />
        </mxCell>
        <mxCell id="T3WA5_LwOZM7rSGJBzHW-22" value="" style="endArrow=classic;html=1;rounded=0;exitX=0;exitY=0.5;exitDx=0;exitDy=0;entryX=1;entryY=0.25;entryDx=0;entryDy=0;" edge="1" parent="1" source="T3WA5_LwOZM7rSGJBzHW-19" target="T3WA5_LwOZM7rSGJBzHW-11">
          <mxGeometry width="50" height="50" relative="1" as="geometry">
            <mxPoint x="630" y="190" as="sourcePoint" />
            <mxPoint x="680" y="140" as="targetPoint" />
          </mxGeometry>
        </mxCell>
        <mxCell id="T3WA5_LwOZM7rSGJBzHW-24" value="" style="endArrow=classic;html=1;rounded=0;exitX=0;exitY=0.5;exitDx=0;exitDy=0;entryX=1.009;entryY=0.561;entryDx=0;entryDy=0;entryPerimeter=0;" edge="1" parent="1" source="T3WA5_LwOZM7rSGJBzHW-20" target="T3WA5_LwOZM7rSGJBzHW-11">
          <mxGeometry width="50" height="50" relative="1" as="geometry">
            <mxPoint x="620" y="310" as="sourcePoint" />
            <mxPoint x="590" y="230" as="targetPoint" />
          </mxGeometry>
        </mxCell>
        <mxCell id="T3WA5_LwOZM7rSGJBzHW-25" value="" style="endArrow=classic;html=1;rounded=0;exitX=0;exitY=0.25;exitDx=0;exitDy=0;entryX=1;entryY=0.75;entryDx=0;entryDy=0;" edge="1" parent="1" source="T3WA5_LwOZM7rSGJBzHW-21" target="T3WA5_LwOZM7rSGJBzHW-11">
          <mxGeometry width="50" height="50" relative="1" as="geometry">
            <mxPoint x="590" y="380" as="sourcePoint" />
            <mxPoint x="640" y="330" as="targetPoint" />
          </mxGeometry>
        </mxCell>
        <mxCell id="T3WA5_LwOZM7rSGJBzHW-26" value="&lt;font style=&quot;font-size: 14px;&quot;&gt;Hey, I&lt;br&gt;am here&lt;/font&gt;" style="text;html=1;align=center;verticalAlign=middle;resizable=0;points=[];autosize=1;strokeColor=none;fillColor=none;" vertex="1" parent="1">
          <mxGeometry x="580" y="50" width="70" height="50" as="geometry" />
        </mxCell>
        <mxCell id="T3WA5_LwOZM7rSGJBzHW-27" value="&lt;font style=&quot;font-size: 14px;&quot;&gt;Hey, I&lt;br&gt;am here&lt;/font&gt;" style="text;html=1;align=center;verticalAlign=middle;resizable=0;points=[];autosize=1;strokeColor=none;fillColor=none;" vertex="1" parent="1">
          <mxGeometry x="630" y="290" width="70" height="50" as="geometry" />
        </mxCell>
        <mxCell id="T3WA5_LwOZM7rSGJBzHW-28" value="&lt;font style=&quot;font-size: 14px;&quot;&gt;Hey, I&lt;br&gt;am here&lt;/font&gt;" style="text;html=1;align=center;verticalAlign=middle;resizable=0;points=[];autosize=1;strokeColor=none;fillColor=none;" vertex="1" parent="1">
          <mxGeometry x="600" y="178" width="70" height="50" as="geometry" />
        </mxCell>
        <mxCell id="T3WA5_LwOZM7rSGJBzHW-29" value="" style="endArrow=classic;html=1;rounded=0;exitX=0;exitY=0.75;exitDx=0;exitDy=0;entryX=1;entryY=0.887;entryDx=0;entryDy=0;entryPerimeter=0;" edge="1" parent="1" source="T3WA5_LwOZM7rSGJBzHW-21" target="T3WA5_LwOZM7rSGJBzHW-11">
          <mxGeometry width="50" height="50" relative="1" as="geometry">
            <mxPoint x="520" y="420" as="sourcePoint" />
            <mxPoint x="540" y="370" as="targetPoint" />
          </mxGeometry>
        </mxCell>
        <mxCell id="T3WA5_LwOZM7rSGJBzHW-30" value="&lt;font style=&quot;font-size: 14px;&quot;&gt;Hey, I&lt;br&gt;am still&lt;br&gt;here&lt;br&gt;&lt;/font&gt;" style="text;html=1;align=center;verticalAlign=middle;resizable=0;points=[];autosize=1;strokeColor=none;fillColor=none;" vertex="1" parent="1">
          <mxGeometry x="570" y="350" width="70" height="60" as="geometry" />
        </mxCell>
      </root>
    </mxGraphModel>
  </diagram>
  <diagram id="v3joR6ciTDWKAq6qdvqC" name="Page-2">
    <mxGraphModel dx="1040" dy="627" grid="1" gridSize="10" guides="1" tooltips="1" connect="1" arrows="1" fold="1" page="1" pageScale="1" pageWidth="827" pageHeight="1169" math="0" shadow="0">
      <root>
        <mxCell id="0" />
        <mxCell id="1" parent="0" />
        <mxCell id="uwTVkD9b8CHtiVBA_DjJ-1" value="" style="rounded=0;whiteSpace=wrap;html=1;" vertex="1" parent="1">
          <mxGeometry x="500" y="80" width="220" height="200" as="geometry" />
        </mxCell>
        <mxCell id="uwTVkD9b8CHtiVBA_DjJ-2" value="" style="shape=image;html=1;verticalAlign=top;verticalLabelPosition=bottom;labelBackgroundColor=#ffffff;imageAspect=0;aspect=fixed;image=https://cdn2.iconfinder.com/data/icons/boxicons-logos/24/bxl-spring-boot-128.png" vertex="1" parent="1">
          <mxGeometry x="570" y="120" width="80" height="80" as="geometry" />
        </mxCell>
        <mxCell id="uwTVkD9b8CHtiVBA_DjJ-3" value="&lt;font style=&quot;font-size: 14px;&quot;&gt;Discovery Server&lt;/font&gt;" style="text;html=1;align=center;verticalAlign=middle;resizable=0;points=[];autosize=1;strokeColor=none;fillColor=none;" vertex="1" parent="1">
          <mxGeometry x="545" y="200" width="130" height="30" as="geometry" />
        </mxCell>
        <mxCell id="uwTVkD9b8CHtiVBA_DjJ-6" value="&lt;font style=&quot;font-size: 14px;&quot;&gt;Order Service&lt;/font&gt;" style="rounded=0;whiteSpace=wrap;html=1;" vertex="1" parent="1">
          <mxGeometry x="120" y="150" width="120" height="60" as="geometry" />
        </mxCell>
        <mxCell id="uwTVkD9b8CHtiVBA_DjJ-7" value="" style="endArrow=classic;html=1;rounded=0;exitX=1.008;exitY=0.15;exitDx=0;exitDy=0;exitPerimeter=0;entryX=-0.009;entryY=0.4;entryDx=0;entryDy=0;entryPerimeter=0;" edge="1" parent="1" source="uwTVkD9b8CHtiVBA_DjJ-6" target="uwTVkD9b8CHtiVBA_DjJ-1">
          <mxGeometry width="50" height="50" relative="1" as="geometry">
            <mxPoint x="390" y="240" as="sourcePoint" />
            <mxPoint x="440" y="190" as="targetPoint" />
          </mxGeometry>
        </mxCell>
        <mxCell id="uwTVkD9b8CHtiVBA_DjJ-8" value="&lt;font style=&quot;font-size: 14px;&quot;&gt;1. Where can I find&lt;br&gt;Inventory Service?&lt;/font&gt;" style="text;html=1;align=center;verticalAlign=middle;resizable=0;points=[];autosize=1;strokeColor=none;fillColor=none;" vertex="1" parent="1">
          <mxGeometry x="290" y="110" width="140" height="50" as="geometry" />
        </mxCell>
        <mxCell id="uwTVkD9b8CHtiVBA_DjJ-10" value="" style="endArrow=classic;html=1;rounded=0;exitX=-0.005;exitY=0.6;exitDx=0;exitDy=0;exitPerimeter=0;" edge="1" parent="1" source="uwTVkD9b8CHtiVBA_DjJ-1">
          <mxGeometry width="50" height="50" relative="1" as="geometry">
            <mxPoint x="390" y="240" as="sourcePoint" />
            <mxPoint x="240" y="200" as="targetPoint" />
          </mxGeometry>
        </mxCell>
        <mxCell id="uwTVkD9b8CHtiVBA_DjJ-11" value="&lt;font style=&quot;font-size: 14px;&quot;&gt;2. Here you go&lt;/font&gt;" style="text;html=1;align=center;verticalAlign=middle;resizable=0;points=[];autosize=1;strokeColor=none;fillColor=none;" vertex="1" parent="1">
          <mxGeometry x="300" y="200" width="120" height="30" as="geometry" />
        </mxCell>
        <mxCell id="uwTVkD9b8CHtiVBA_DjJ-12" value="&lt;font style=&quot;font-size: 14px;&quot;&gt;Inventory Service&lt;/font&gt;" style="rounded=0;whiteSpace=wrap;html=1;" vertex="1" parent="1">
          <mxGeometry x="360" y="390" width="120" height="60" as="geometry" />
        </mxCell>
        <mxCell id="uwTVkD9b8CHtiVBA_DjJ-13" value="" style="endArrow=classic;html=1;rounded=0;exitX=0.5;exitY=1;exitDx=0;exitDy=0;entryX=0;entryY=0.5;entryDx=0;entryDy=0;" edge="1" parent="1" source="uwTVkD9b8CHtiVBA_DjJ-6" target="uwTVkD9b8CHtiVBA_DjJ-12">
          <mxGeometry width="50" height="50" relative="1" as="geometry">
            <mxPoint x="220" y="320" as="sourcePoint" />
            <mxPoint x="270" y="270" as="targetPoint" />
          </mxGeometry>
        </mxCell>
        <mxCell id="uwTVkD9b8CHtiVBA_DjJ-14" value="&lt;font style=&quot;font-size: 14px;&quot;&gt;3. Hey, quick, tell me the&lt;br&gt;inventory of iphone-13&lt;/font&gt;" style="text;html=1;align=center;verticalAlign=middle;resizable=0;points=[];autosize=1;strokeColor=none;fillColor=none;" vertex="1" parent="1">
          <mxGeometry x="90" y="320" width="180" height="50" as="geometry" />
        </mxCell>
      </root>
    </mxGraphModel>
  </diagram>
  <diagram id="L8xKL2mlL4pQUcYJ3TsP" name="Page-3">
    <mxGraphModel dx="1040" dy="627" grid="1" gridSize="10" guides="1" tooltips="1" connect="1" arrows="1" fold="1" page="1" pageScale="1" pageWidth="827" pageHeight="1169" math="0" shadow="0">
      <root>
        <mxCell id="0" />
        <mxCell id="1" parent="0" />
        <mxCell id="SofeYgt95Fi15Hm00KRK-1" value="" style="rounded=0;whiteSpace=wrap;html=1;" vertex="1" parent="1">
          <mxGeometry x="40" y="80" width="220" height="200" as="geometry" />
        </mxCell>
        <mxCell id="SofeYgt95Fi15Hm00KRK-2" value="" style="shape=image;html=1;verticalAlign=top;verticalLabelPosition=bottom;labelBackgroundColor=#ffffff;imageAspect=0;aspect=fixed;image=https://cdn2.iconfinder.com/data/icons/boxicons-logos/24/bxl-spring-boot-128.png" vertex="1" parent="1">
          <mxGeometry x="110" y="120" width="80" height="80" as="geometry" />
        </mxCell>
        <mxCell id="SofeYgt95Fi15Hm00KRK-3" value="&lt;font style=&quot;font-size: 18px;&quot;&gt;Discovery Server&lt;/font&gt;" style="text;html=1;align=center;verticalAlign=middle;resizable=0;points=[];autosize=1;strokeColor=none;fillColor=none;" vertex="1" parent="1">
          <mxGeometry x="70" y="195" width="160" height="40" as="geometry" />
        </mxCell>
        <mxCell id="hiuGgc2RWwCX5t7e8v5n-1" value="" style="rounded=0;whiteSpace=wrap;html=1;" vertex="1" parent="1">
          <mxGeometry x="420" y="42.5" width="350" height="275" as="geometry" />
        </mxCell>
        <mxCell id="hiuGgc2RWwCX5t7e8v5n-2" value="" style="shape=table;startSize=0;container=1;collapsible=0;childLayout=tableLayout;" vertex="1" parent="1">
          <mxGeometry x="470" y="180" width="250" height="120" as="geometry" />
        </mxCell>
        <mxCell id="hiuGgc2RWwCX5t7e8v5n-3" value="" style="shape=tableRow;horizontal=0;startSize=0;swimlaneHead=0;swimlaneBody=0;strokeColor=inherit;top=0;left=0;bottom=0;right=0;collapsible=0;dropTarget=0;fillColor=none;points=[[0,0.5],[1,0.5]];portConstraint=eastwest;" vertex="1" parent="hiuGgc2RWwCX5t7e8v5n-2">
          <mxGeometry width="250" height="40" as="geometry" />
        </mxCell>
        <mxCell id="hiuGgc2RWwCX5t7e8v5n-4" value="&lt;font style=&quot;font-size: 14px;&quot;&gt;Inventory Service&lt;/font&gt;" style="shape=partialRectangle;html=1;whiteSpace=wrap;connectable=0;strokeColor=inherit;overflow=hidden;fillColor=none;top=0;left=0;bottom=0;right=0;pointerEvents=1;" vertex="1" parent="hiuGgc2RWwCX5t7e8v5n-3">
          <mxGeometry width="125" height="40" as="geometry">
            <mxRectangle width="125" height="40" as="alternateBounds" />
          </mxGeometry>
        </mxCell>
        <mxCell id="hiuGgc2RWwCX5t7e8v5n-5" value="&lt;font style=&quot;font-size: 14px;&quot;&gt;10.12.123.1&lt;/font&gt;" style="shape=partialRectangle;html=1;whiteSpace=wrap;connectable=0;strokeColor=inherit;overflow=hidden;fillColor=none;top=0;left=0;bottom=0;right=0;pointerEvents=1;" vertex="1" parent="hiuGgc2RWwCX5t7e8v5n-3">
          <mxGeometry x="125" width="125" height="40" as="geometry">
            <mxRectangle width="125" height="40" as="alternateBounds" />
          </mxGeometry>
        </mxCell>
        <mxCell id="hiuGgc2RWwCX5t7e8v5n-6" value="" style="shape=tableRow;horizontal=0;startSize=0;swimlaneHead=0;swimlaneBody=0;strokeColor=inherit;top=0;left=0;bottom=0;right=0;collapsible=0;dropTarget=0;fillColor=none;points=[[0,0.5],[1,0.5]];portConstraint=eastwest;" vertex="1" parent="hiuGgc2RWwCX5t7e8v5n-2">
          <mxGeometry y="40" width="250" height="40" as="geometry" />
        </mxCell>
        <mxCell id="hiuGgc2RWwCX5t7e8v5n-7" value="&lt;font style=&quot;font-size: 14px;&quot;&gt;Inventory Service&lt;/font&gt;" style="shape=partialRectangle;html=1;whiteSpace=wrap;connectable=0;strokeColor=inherit;overflow=hidden;fillColor=none;top=0;left=0;bottom=0;right=0;pointerEvents=1;" vertex="1" parent="hiuGgc2RWwCX5t7e8v5n-6">
          <mxGeometry width="125" height="40" as="geometry">
            <mxRectangle width="125" height="40" as="alternateBounds" />
          </mxGeometry>
        </mxCell>
        <mxCell id="hiuGgc2RWwCX5t7e8v5n-8" value="&lt;font style=&quot;font-size: 14px;&quot;&gt;10.12.123.2&lt;/font&gt;" style="shape=partialRectangle;html=1;whiteSpace=wrap;connectable=0;strokeColor=inherit;overflow=hidden;fillColor=none;top=0;left=0;bottom=0;right=0;pointerEvents=1;" vertex="1" parent="hiuGgc2RWwCX5t7e8v5n-6">
          <mxGeometry x="125" width="125" height="40" as="geometry">
            <mxRectangle width="125" height="40" as="alternateBounds" />
          </mxGeometry>
        </mxCell>
        <mxCell id="hiuGgc2RWwCX5t7e8v5n-9" value="" style="shape=tableRow;horizontal=0;startSize=0;swimlaneHead=0;swimlaneBody=0;strokeColor=inherit;top=0;left=0;bottom=0;right=0;collapsible=0;dropTarget=0;fillColor=none;points=[[0,0.5],[1,0.5]];portConstraint=eastwest;" vertex="1" parent="hiuGgc2RWwCX5t7e8v5n-2">
          <mxGeometry y="80" width="250" height="40" as="geometry" />
        </mxCell>
        <mxCell id="hiuGgc2RWwCX5t7e8v5n-10" value="&lt;font style=&quot;font-size: 14px;&quot;&gt;Inventory Service&lt;/font&gt;" style="shape=partialRectangle;html=1;whiteSpace=wrap;connectable=0;strokeColor=inherit;overflow=hidden;fillColor=none;top=0;left=0;bottom=0;right=0;pointerEvents=1;" vertex="1" parent="hiuGgc2RWwCX5t7e8v5n-9">
          <mxGeometry width="125" height="40" as="geometry">
            <mxRectangle width="125" height="40" as="alternateBounds" />
          </mxGeometry>
        </mxCell>
        <mxCell id="hiuGgc2RWwCX5t7e8v5n-11" value="&lt;font style=&quot;font-size: 14px;&quot;&gt;10.12.123.3&lt;/font&gt;" style="shape=partialRectangle;html=1;whiteSpace=wrap;connectable=0;strokeColor=inherit;overflow=hidden;fillColor=none;top=0;left=0;bottom=0;right=0;pointerEvents=1;" vertex="1" parent="hiuGgc2RWwCX5t7e8v5n-9">
          <mxGeometry x="125" width="125" height="40" as="geometry">
            <mxRectangle width="125" height="40" as="alternateBounds" />
          </mxGeometry>
        </mxCell>
        <mxCell id="hiuGgc2RWwCX5t7e8v5n-12" value="&lt;font style=&quot;font-size: 14px;&quot;&gt;Microservice&lt;/font&gt;" style="rounded=0;whiteSpace=wrap;html=1;" vertex="1" parent="1">
          <mxGeometry x="535" y="110" width="120" height="60" as="geometry" />
        </mxCell>
        <mxCell id="hiuGgc2RWwCX5t7e8v5n-15" value="&lt;font style=&quot;font-size: 18px;&quot;&gt;Client&lt;/font&gt;" style="text;html=1;align=center;verticalAlign=middle;resizable=0;points=[];autosize=1;strokeColor=none;fillColor=none;" vertex="1" parent="1">
          <mxGeometry x="560" y="60" width="70" height="40" as="geometry" />
        </mxCell>
        <mxCell id="hiuGgc2RWwCX5t7e8v5n-16" value="" style="endArrow=classic;html=1;rounded=0;exitX=0;exitY=0.25;exitDx=0;exitDy=0;" edge="1" parent="1" source="hiuGgc2RWwCX5t7e8v5n-12">
          <mxGeometry width="50" height="50" relative="1" as="geometry">
            <mxPoint x="350" y="230" as="sourcePoint" />
            <mxPoint x="260" y="125" as="targetPoint" />
          </mxGeometry>
        </mxCell>
        <mxCell id="hiuGgc2RWwCX5t7e8v5n-18" value="" style="endArrow=classic;html=1;rounded=0;entryX=0;entryY=0.75;entryDx=0;entryDy=0;" edge="1" parent="1" target="hiuGgc2RWwCX5t7e8v5n-12">
          <mxGeometry width="50" height="50" relative="1" as="geometry">
            <mxPoint x="260" y="155" as="sourcePoint" />
            <mxPoint x="400" y="180" as="targetPoint" />
          </mxGeometry>
        </mxCell>
        <mxCell id="zCAM6ierpyBiNxQ_PyC--1" value="&lt;font style=&quot;font-size: 14px;&quot;&gt;Hey, I&lt;br&gt;am here&lt;/font&gt;" style="text;html=1;align=center;verticalAlign=middle;resizable=0;points=[];autosize=1;strokeColor=none;fillColor=none;" vertex="1" parent="1">
          <mxGeometry x="304" y="80" width="70" height="50" as="geometry" />
        </mxCell>
        <mxCell id="zCAM6ierpyBiNxQ_PyC--2" value="&lt;font style=&quot;font-size: 14px;&quot;&gt;Here, is the registry,&lt;br&gt;store it&lt;/font&gt;" style="text;html=1;align=center;verticalAlign=middle;resizable=0;points=[];autosize=1;strokeColor=none;fillColor=none;" vertex="1" parent="1">
          <mxGeometry x="264" y="155" width="150" height="50" as="geometry" />
        </mxCell>
      </root>
    </mxGraphModel>
  </diagram>
</mxfile>
